<svg width="24" height="24" viewBox="0 0 24 24" fill="none" xmlns="http://www.w3.org/2000/svg">
<path fill-rule="evenodd" clip-rule="evenodd" d="M23.4985 6.62338C23.2225 5.59076 22.4092 4.7775 21.3766 4.50151C19.505 4 12 4 12 4C12 4 4.49503 4 2.62336 4.50151C1.59077 4.77754 0.777523 5.59076 0.501503 6.62338C0 8.49506 0 12.4002 0 12.4002C0 12.4002 0 16.3052 0.501503 18.1769C0.777523 19.2095 1.59077 19.9889 2.62336 20.2649C4.49503 20.7664 12 20.7664 12 20.7664C12 20.7664 19.505 20.7664 21.3766 20.2649C22.4092 19.9889 23.2225 19.2095 23.4985 18.1769C24 16.3052 24 12.4002 24 12.4002C24 12.4002 24 8.49506 23.4985 6.62338ZM9.54492 15.9458V8.85468L15.8176 12.4003L9.54492 15.9458Z" fill="#5A5A5A"/>
</svg>
