<svg width="60" height="60" viewBox="0 0 60 60" fill="none" xmlns="http://www.w3.org/2000/svg">
<path d="M49.1665 29.1667L43.1665 24.5C40.9763 22.7958 37.8596 22.9902 35.8982 24.9533L35.4265 25.425" stroke="black" stroke-width="1.5" stroke-linecap="round" stroke-linejoin="round"/>
<path d="M10.8333 23.3333C10.8333 16.89 16.0566 11.6666 22.4999 11.6666" stroke="#228800" stroke-width="1.5" stroke-linecap="round" stroke-linejoin="round"/>
<path d="M14.1665 23.3333C14.1665 18.731 17.8975 15 22.4998 15" stroke="#228800" stroke-width="1.5" stroke-linecap="round" stroke-linejoin="round"/>
<path d="M17.5 23.3333C17.5 20.5718 19.7386 18.3333 22.5 18.3333" stroke="#228800" stroke-width="1.5" stroke-linecap="round" stroke-linejoin="round"/>
<path d="M41.3333 38.6667L43.8333 36.1783C44.484 35.5275 44.484 34.4725 43.8333 33.8217L29.5183 19.5117C28.8675 18.861 27.8125 18.861 27.1617 19.5117L18.685 27.9883C18.0344 28.6392 18.0344 29.6942 18.685 30.345L33 44.655C33.6508 45.3056 34.7058 45.3056 35.3567 44.655L37.095 42.9167" stroke="black" stroke-width="1.5" stroke-linecap="round" stroke-linejoin="round"/>
<path d="M28.9715 27.4399L27.3415 29.0699C27.0038 29.4079 26.9428 29.9337 27.1942 30.34C27.4456 30.7463 27.9434 30.9264 28.3965 30.7749L30.7299 29.9983C31.1834 29.8467 31.6817 30.0272 31.9328 30.4342C32.184 30.8412 32.122 31.3675 31.7832 31.7049L30.1499 33.3333" stroke="#228800" stroke-width="1.5" stroke-linecap="round" stroke-linejoin="round"/>
<path d="M27.7933 28.6199L26.6133 27.4399" stroke="#228800" stroke-width="1.5" stroke-linecap="round" stroke-linejoin="round"/>
<path d="M32.5067 33.3332L31.3284 32.1549" stroke="#228800" stroke-width="1.5" stroke-linecap="round" stroke-linejoin="round"/>
<path d="M30.8398 42.4999L33.8515 39.4883" stroke="black" stroke-width="1.5" stroke-linecap="round" stroke-linejoin="round"/>
<path d="M49.1667 48.3334L41.2317 45.6884C39.8741 45.2357 38.6405 44.4734 37.6284 43.4617L34.3334 40.1667C33.3907 39.2253 33.3159 37.7223 34.1606 36.692C35.0052 35.6617 36.4937 35.4402 37.6017 36.18L43.3334 40" stroke="black" stroke-width="1.5" stroke-linecap="round" stroke-linejoin="round"/>
<path d="M37.325 36.015L41.6733 31.6666" stroke="black" stroke-width="1.5" stroke-linecap="round" stroke-linejoin="round"/>
</svg>
