<svg width="60" height="60" viewBox="0 0 60 60" fill="none" xmlns="http://www.w3.org/2000/svg">
<path d="M48 48H12V12" stroke="black" stroke-width="1.5" stroke-linecap="round" stroke-linejoin="round"/>
<path d="M12 44.4533L20.9405 38.6087M37.8261 24.0616L44.2059 15.9131L37.8261 24.0616ZM26.8696 22.9566L34.0977 25.536L26.8696 22.9566ZM12 30.0079L22.5167 23.7392L12 30.0079ZM37.0435 36.2547L43.9383 32.3479L37.0435 36.2547ZM25.3043 37.0435H32.3478H25.3043Z" stroke="black" stroke-width="1.5" stroke-linecap="round" stroke-linejoin="round"/>
<path fill-rule="evenodd" clip-rule="evenodd" d="M25.3043 37.0435C25.3043 38.341 24.254 39.3913 22.9565 39.3913C21.6605 39.3913 20.6086 38.341 20.6086 37.0435C20.6086 35.7475 21.6605 34.6957 22.9565 34.6957C24.254 34.6957 25.3043 35.7475 25.3043 37.0435ZM26.8695 22.1739C26.8695 23.4715 25.8177 24.5217 24.5217 24.5217C23.2257 24.5217 22.1739 23.4715 22.1739 22.1739C22.1739 20.8763 23.2257 19.8261 24.5217 19.8261C25.8177 19.8261 26.8695 20.8763 26.8695 22.1739ZM38.6086 26.087C38.6086 27.3845 37.5568 28.4348 36.2608 28.4348C34.9648 28.4348 33.913 27.3845 33.913 26.087C33.913 24.7894 34.9648 23.7391 36.2608 23.7391C37.5568 23.7391 38.6086 24.7894 38.6086 26.087ZM47.9999 14.3478C47.9999 15.6454 46.9481 16.6957 45.6521 16.6957C44.3561 16.6957 43.3043 15.6454 43.3043 14.3478C43.3043 13.0503 44.3561 12 45.6521 12C46.9481 12 47.9999 13.0503 47.9999 14.3478ZM47.9999 30.7826C47.9999 32.0802 46.9481 33.1304 45.6521 33.1304C44.3561 33.1304 43.3043 32.0802 43.3043 30.7826C43.3043 29.485 44.3561 28.4348 45.6521 28.4348C46.9481 28.4348 47.9999 29.485 47.9999 30.7826ZM37.0434 37.0435C37.0434 38.341 35.9916 39.3913 34.6956 39.3913C33.3996 39.3913 32.3478 38.341 32.3478 37.0435C32.3478 35.7459 33.3996 34.6957 34.6956 34.6957C35.9916 34.6957 37.0434 35.7459 37.0434 37.0435Z" stroke="#228800" stroke-width="1.5" stroke-linecap="round" stroke-linejoin="round"/>
</svg>
