<svg width="61" height="61" viewBox="0 0 61 61" fill="none" xmlns="http://www.w3.org/2000/svg">
<path d="M32.8695 37.1128L27.6773 33.217C27.0448 32.7426 26.2449 32.5495 25.4656 32.683C24.6863 32.8165 23.9964 33.2649 23.5578 33.9228C22.9142 34.8888 22.9142 36.1469 23.5578 37.1128C34.5 47.1963 32.8695 43.844 32.8695 49.6428M44.1195 49.6337C44.1195 29.3222 44.1195 30.3886 34.5 24.7053" stroke="black" stroke-width="1.5" stroke-linecap="round" stroke-linejoin="round"/>
<path d="M29.9112 43.6963H15.4574C14.1002 43.6963 13 42.5942 13 41.2347V14.1578C13 12.7984 14.1002 11.6963 15.4574 11.6963H31.5426C32.8998 11.6963 34 12.7984 34 14.1578V32.6963" stroke="black" stroke-width="1.5" stroke-linecap="round" stroke-linejoin="round"/>
<path fill-rule="evenodd" clip-rule="evenodd" d="M23.5 23.1151C22.7283 20.8458 20 21.5235 20 23.5649C20 25.0443 22.3363 26.9366 23.2296 27.6067C23.3883 27.7261 23.6117 27.7261 23.7704 27.6067C24.6638 26.9366 27 25.0443 27 23.5649C27 21.5277 24.2718 20.8458 23.5 23.1151Z" stroke="#228800" stroke-width="1.5" stroke-linecap="round" stroke-linejoin="round"/>
<path d="M29.3125 19.6963H17.6875C16.7555 19.6963 16 20.4289 16 21.3327V28.0599C16 28.9637 16.7555 29.6963 17.6875 29.6963H29.3125C30.2445 29.6963 31 28.9637 31 28.0599V21.3327C31 20.4289 30.2445 19.6963 29.3125 19.6963Z" stroke="#228800" stroke-width="1.5"/>
<path d="M13 38.6963L25 38.6963" stroke="black" stroke-width="1.5" stroke-linecap="round" stroke-linejoin="round"/>
<path d="M13 15.6963L34 15.6963" stroke="black" stroke-width="1.5" stroke-linecap="round" stroke-linejoin="round"/>
</svg>
