<svg width="60" height="60" viewBox="0 0 60 60" fill="none" xmlns="http://www.w3.org/2000/svg">
<path d="M36.1301 45.0971L34.8861 37.6311" stroke="black" stroke-width="1.5" stroke-linecap="round" stroke-linejoin="round"/>
<path d="M23.688 45.0971L24.932 37.6311" stroke="black" stroke-width="1.5" stroke-linecap="round" stroke-linejoin="round"/>
<path d="M24.9319 37.6307H16.2217C13.4728 37.6307 11.2444 35.4023 11.2444 32.6535V17.7217C11.2444 14.9728 13.4728 12.7444 16.2217 12.7444H43.5967C46.3455 12.7444 48.5739 14.9728 48.5739 17.7217V32.6535C48.5739 35.4023 46.3455 37.6307 43.5967 37.6307H34.8864H43.5967C46.3455 37.6307 48.5739 35.4023 48.5739 32.6535V17.7217" stroke="black" stroke-width="1.5" stroke-linecap="round" stroke-linejoin="round"/>
<path d="M19.9551 45.0972H39.7271" stroke="black" stroke-width="1.5" stroke-linecap="round" stroke-linejoin="round"/>
<path d="M12.2441 34.6531H47.3001" stroke="black" stroke-width="1.5" stroke-linecap="round" stroke-linejoin="round"/>
<path d="M34.8711 23.188H20.1111V17H43.2531V21.841" stroke="#228800" stroke-width="1.5" stroke-linecap="round" stroke-linejoin="round"/>
<path d="M20.1111 30.259V26.53H29.9701V30.259" stroke="#228800" stroke-width="1.5" stroke-linecap="round" stroke-linejoin="round"/>
<path d="M33.394 30.259V26.53H34.858" stroke="#228800" stroke-width="1.5" stroke-linecap="round" stroke-linejoin="round"/>
<path d="M16.7471 16.709V31.764" stroke="#228800" stroke-width="1.5" stroke-linecap="round" stroke-linejoin="round"/>
<path fill-rule="evenodd" clip-rule="evenodd" d="M38.1436 22.6321L43.6857 26.3129L38.5602 29.2722L38.1436 22.6321Z" stroke="black" stroke-width="1.5" stroke-linecap="round" stroke-linejoin="round"/>
<path d="M41.3142 28.1235L43.1577 31.3166" stroke="black" stroke-width="1.5" stroke-linecap="round" stroke-linejoin="round"/>
</svg>
